<svg width="108" height="108" viewBox="0 0 108 108" fill="none" xmlns="http://www.w3.org/2000/svg">
<g clip-path="url(#clip0_87_38)">
<path d="M45.7515 57.1677L35.4189 46.9617L26.2878 57.0226L46.8315 77.308L80.5983 35.6504L70.4463 26.6948L45.7515 57.1677ZM75.9375 36.0402L46.5547 72.2928L30.9622 56.8943L35.5522 51.8369L46.0299 62.1846L70.853 31.5565L75.9375 36.0402Z" fill="#3F2622"/>
<path d="M89.7733 14.0925C81.4134 14.0925 65.8091 12.4303 55.2217 1.28779L54 -0.00146484L52.7749 1.28779C42.1942 12.4303 26.5865 14.0925 18.225 14.0925C14.4079 14.0925 11.9289 13.7466 11.9053 13.7432L9.97986 13.4682V60.7857C9.97986 72.2674 17.5314 84.0428 31.8144 94.8445C42.4339 102.872 52.8795 107.509 53.3182 107.702L54 108.002L54.68 107.702C55.1188 107.509 65.5644 102.872 76.1839 94.8445C90.4685 84.0445 98.0184 72.2674 98.0184 60.7857V13.4698L96.093 13.7415C96.071 13.7466 93.5904 14.0925 89.7733 14.0925ZM94.6451 60.7857C94.6451 84.2976 59.373 101.775 54 104.3C48.6219 101.777 13.3549 84.3162 13.3549 60.7857V17.2819C14.5294 17.3764 16.1966 17.4658 18.2267 17.4658C26.8177 17.4658 42.6161 15.7902 54 4.84166C65.3889 15.7885 81.1856 17.4658 89.7733 17.4658C91.8034 17.4658 93.4689 17.3747 94.6451 17.2819V60.7857Z" fill="#3F2622"/>
</g>
<defs>
<clipPath id="clip0_87_38">
<rect width="108" height="108" fill="white"/>
</clipPath>
</defs>
</svg>
