<svg width="222" height="156" viewBox="0 0 222 156" fill="none" xmlns="http://www.w3.org/2000/svg">
<g clip-path="url(#clip0_188_338)">
<path d="M102.751 57.1677L92.4189 46.9617L83.2878 57.0226L103.831 77.308L137.598 35.6504L127.446 26.6948L102.751 57.1677ZM132.937 36.0402L103.555 72.2928L87.9622 56.8943L92.5522 51.8369L103.03 62.1846L127.853 31.5565L132.937 36.0402Z" fill="#3F2622"/>
<path d="M146.773 14.0925C138.413 14.0925 122.809 12.4303 112.222 1.28779L111 -0.00146484L109.775 1.28779C99.1942 12.4303 83.5865 14.0925 75.225 14.0925C71.4079 14.0925 68.9289 13.7466 68.9053 13.7432L66.9799 13.4682V60.7857C66.9799 72.2674 74.5314 84.0428 88.8144 94.8445C99.4339 102.872 109.879 107.509 110.318 107.702L111 108.002L111.68 107.702C112.119 107.509 122.564 102.872 133.184 94.8445C147.469 84.0445 155.018 72.2674 155.018 60.7857V13.4698L153.093 13.7415C153.071 13.7466 150.59 14.0925 146.773 14.0925ZM151.645 60.7857C151.645 84.2976 116.373 101.775 111 104.3C105.622 101.777 70.3549 84.3162 70.3549 60.7857V17.2819C71.5294 17.3764 73.1966 17.4658 75.2267 17.4658C83.8177 17.4658 99.6161 15.7902 111 4.84166C122.389 15.7885 138.186 17.4658 146.773 17.4658C148.803 17.4658 150.469 17.3747 151.645 17.2819V60.7857Z" fill="#3F2622"/>
</g>
<path d="M1.57812 151V135H7.57813C8.80729 135 9.83854 135.229 10.6719 135.687C11.5104 136.146 12.1432 136.776 12.5703 137.578C13.0026 138.375 13.2188 139.281 13.2188 140.297C13.2188 141.323 13.0026 142.234 12.5703 143.031C12.138 143.828 11.5 144.456 10.6562 144.914C9.8125 145.367 8.77344 145.594 7.53906 145.594H3.5625V143.211H7.14844C7.86719 143.211 8.45573 143.086 8.91406 142.836C9.3724 142.586 9.71094 142.242 9.92969 141.805C10.1536 141.367 10.2656 140.865 10.2656 140.297C10.2656 139.729 10.1536 139.229 9.92969 138.797C9.71094 138.365 9.36979 138.029 8.90625 137.789C8.44792 137.544 7.85677 137.422 7.13281 137.422H4.47656V151H1.57812ZM20.752 151.234C19.5488 151.234 18.5098 150.984 17.6348 150.484C16.765 149.979 16.0957 149.266 15.627 148.344C15.1582 147.417 14.9238 146.326 14.9238 145.07C14.9238 143.836 15.1582 142.753 15.627 141.82C16.1009 140.883 16.7624 140.154 17.6113 139.633C18.4603 139.107 19.4577 138.844 20.6035 138.844C21.3431 138.844 22.041 138.964 22.6973 139.203C23.3587 139.437 23.9421 139.802 24.4473 140.297C24.9577 140.792 25.3587 141.422 25.6504 142.187C25.9421 142.948 26.0879 143.854 26.0879 144.906V145.773H16.252V143.867H23.377C23.3717 143.326 23.2546 142.844 23.0254 142.422C22.7962 141.995 22.4759 141.659 22.0645 141.414C21.6582 141.169 21.1842 141.047 20.6426 141.047C20.0645 141.047 19.5566 141.187 19.1191 141.469C18.6816 141.745 18.3405 142.109 18.0957 142.562C17.8561 143.01 17.7337 143.503 17.7285 144.039V145.703C17.7285 146.401 17.8561 147 18.1113 147.5C18.3665 147.995 18.7233 148.375 19.1816 148.641C19.64 148.901 20.1764 149.031 20.791 149.031C21.2025 149.031 21.5749 148.974 21.9082 148.859C22.2415 148.74 22.5306 148.565 22.7754 148.336C23.0202 148.107 23.2051 147.823 23.3301 147.484L25.9707 147.781C25.804 148.479 25.4863 149.089 25.0176 149.609C24.554 150.125 23.9603 150.526 23.2363 150.812C22.5124 151.094 21.6842 151.234 20.752 151.234ZM35.3867 147.711L38.9492 139H41.2305L36.3789 151H34.4023L29.6602 139H31.918L35.3867 147.711ZM31.207 139V151H28.4805V139H31.207ZM39.6836 151V139H42.3867V151H39.6836ZM50.4727 151.234C49.3008 151.234 48.2852 150.977 47.4258 150.461C46.5664 149.945 45.8997 149.224 45.4258 148.297C44.957 147.37 44.7227 146.286 44.7227 145.047C44.7227 143.807 44.957 142.721 45.4258 141.789C45.8997 140.857 46.5664 140.133 47.4258 139.617C48.2852 139.102 49.3008 138.844 50.4727 138.844C51.6445 138.844 52.6602 139.102 53.5195 139.617C54.3789 140.133 55.043 140.857 55.5117 141.789C55.9857 142.721 56.2227 143.807 56.2227 145.047C56.2227 146.286 55.9857 147.37 55.5117 148.297C55.043 149.224 54.3789 149.945 53.5195 150.461C52.6602 150.977 51.6445 151.234 50.4727 151.234ZM50.4883 148.969C51.1237 148.969 51.6549 148.794 52.082 148.445C52.5091 148.091 52.8268 147.617 53.0352 147.023C53.2487 146.43 53.3555 145.768 53.3555 145.039C53.3555 144.305 53.2487 143.641 53.0352 143.047C52.8268 142.448 52.5091 141.971 52.082 141.617C51.6549 141.263 51.1237 141.086 50.4883 141.086C49.8372 141.086 49.2956 141.263 48.8633 141.617C48.4362 141.971 48.1159 142.448 47.9023 143.047C47.694 143.641 47.5898 144.305 47.5898 145.039C47.5898 145.768 47.694 146.43 47.9023 147.023C48.1159 147.617 48.4362 148.091 48.8633 148.445C49.2956 148.794 49.8372 148.969 50.4883 148.969ZM66.8652 143.828V146.148H60.4746V143.828H66.8652ZM61.3496 139V151H58.623V139H61.3496ZM68.7168 139V151H65.998V139H68.7168ZM70.2344 141.32V139H80.7344V141.32H76.8516V151H74.1172V141.32H70.2344ZM88.4434 151V139H91.2715V151H88.4434ZM89.8652 137.297C89.4173 137.297 89.0319 137.148 88.709 136.852C88.3861 136.549 88.2246 136.187 88.2246 135.766C88.2246 135.339 88.3861 134.977 88.709 134.68C89.0319 134.378 89.4173 134.227 89.8652 134.227C90.3184 134.227 90.7038 134.378 91.0215 134.68C91.3444 134.977 91.5059 135.339 91.5059 135.766C91.5059 136.187 91.3444 136.549 91.0215 136.852C90.7038 137.148 90.3184 137.297 89.8652 137.297ZM93.5156 147.711H96.3203C96.3464 148.159 96.5469 148.505 96.9219 148.75C97.2969 148.995 97.7839 149.117 98.3828 149.117C98.9922 149.117 99.5052 148.984 99.9219 148.719C100.344 148.448 100.555 148.039 100.555 147.492C100.555 147.169 100.474 146.885 100.313 146.641C100.151 146.391 99.9245 146.198 99.6328 146.062C99.3411 145.927 98.9974 145.859 98.6016 145.859H96.7656V143.852H98.6016C99.1901 143.852 99.6354 143.716 99.9375 143.445C100.245 143.174 100.398 142.833 100.398 142.422C100.398 141.979 100.237 141.62 99.9141 141.344C99.5964 141.068 99.1563 140.93 98.5938 140.93C98.0313 140.93 97.5625 141.057 97.1875 141.312C96.8177 141.568 96.625 141.896 96.6094 142.297H93.8203C93.8307 141.599 94.0391 140.992 94.4453 140.477C94.8568 139.961 95.4089 139.56 96.1016 139.273C96.7995 138.987 97.5859 138.844 98.4609 138.844C99.3984 138.844 100.208 138.984 100.891 139.266C101.573 139.547 102.099 139.94 102.469 140.445C102.839 140.945 103.023 141.534 103.023 142.211C103.023 142.862 102.82 143.401 102.414 143.828C102.008 144.25 101.461 144.552 100.773 144.734V144.859C101.247 144.885 101.674 145.021 102.055 145.266C102.435 145.505 102.737 145.831 102.961 146.242C103.185 146.654 103.297 147.13 103.297 147.672C103.297 148.406 103.086 149.042 102.664 149.578C102.242 150.109 101.661 150.518 100.922 150.805C100.188 151.091 99.3464 151.234 98.3984 151.234C97.4766 151.234 96.651 151.096 95.9219 150.82C95.1979 150.539 94.6224 150.135 94.1953 149.609C93.7682 149.083 93.5417 148.451 93.5156 147.711ZM118.918 139V141.32H113.746V151H110.98V139H118.918ZM124.145 151.242C123.384 151.242 122.699 151.107 122.09 150.836C121.486 150.56 121.007 150.154 120.652 149.617C120.303 149.081 120.129 148.419 120.129 147.633C120.129 146.956 120.254 146.396 120.504 145.953C120.754 145.51 121.095 145.156 121.527 144.891C121.96 144.625 122.447 144.424 122.988 144.289C123.535 144.148 124.1 144.047 124.684 143.984C125.387 143.911 125.957 143.846 126.395 143.789C126.832 143.727 127.15 143.633 127.348 143.508C127.551 143.378 127.652 143.177 127.652 142.906V142.859C127.652 142.271 127.478 141.815 127.129 141.492C126.78 141.169 126.277 141.008 125.621 141.008C124.928 141.008 124.379 141.159 123.973 141.461C123.572 141.763 123.301 142.12 123.16 142.531L120.52 142.156C120.728 141.427 121.072 140.818 121.551 140.328C122.03 139.833 122.616 139.464 123.309 139.219C124.001 138.969 124.767 138.844 125.605 138.844C126.184 138.844 126.759 138.911 127.332 139.047C127.905 139.182 128.428 139.406 128.902 139.719C129.376 140.026 129.757 140.445 130.043 140.977C130.335 141.508 130.48 142.172 130.48 142.969V151H127.762V149.352H127.668C127.496 149.685 127.254 149.997 126.941 150.289C126.634 150.576 126.246 150.807 125.777 150.984C125.314 151.156 124.77 151.242 124.145 151.242ZM124.879 149.164C125.447 149.164 125.939 149.052 126.355 148.828C126.772 148.599 127.092 148.297 127.316 147.922C127.546 147.547 127.66 147.138 127.66 146.695V145.281C127.572 145.354 127.421 145.422 127.207 145.484C126.999 145.547 126.764 145.602 126.504 145.648C126.243 145.695 125.986 145.737 125.73 145.773C125.475 145.81 125.254 145.841 125.066 145.867C124.645 145.924 124.267 146.018 123.934 146.148C123.6 146.279 123.337 146.461 123.145 146.695C122.952 146.924 122.855 147.221 122.855 147.586C122.855 148.107 123.046 148.5 123.426 148.766C123.806 149.031 124.29 149.164 124.879 149.164ZM133.324 155.5V139H136.105V140.984H136.27C136.415 140.693 136.621 140.383 136.887 140.055C137.152 139.721 137.512 139.437 137.965 139.203C138.418 138.964 138.996 138.844 139.699 138.844C140.626 138.844 141.462 139.081 142.207 139.555C142.957 140.023 143.551 140.719 143.988 141.641C144.431 142.557 144.652 143.682 144.652 145.016C144.652 146.333 144.436 147.453 144.004 148.375C143.572 149.297 142.983 150 142.238 150.484C141.493 150.969 140.65 151.211 139.707 151.211C139.02 151.211 138.449 151.096 137.996 150.867C137.543 150.638 137.178 150.362 136.902 150.039C136.632 149.711 136.421 149.401 136.27 149.109H136.152V155.5H133.324ZM136.098 145C136.098 145.776 136.207 146.456 136.426 147.039C136.65 147.622 136.97 148.078 137.387 148.406C137.809 148.729 138.319 148.891 138.918 148.891C139.543 148.891 140.066 148.724 140.488 148.391C140.91 148.052 141.228 147.591 141.441 147.008C141.66 146.419 141.77 145.75 141.77 145C141.77 144.255 141.663 143.594 141.449 143.016C141.236 142.437 140.918 141.984 140.496 141.656C140.074 141.328 139.548 141.164 138.918 141.164C138.314 141.164 137.801 141.323 137.379 141.641C136.957 141.958 136.637 142.404 136.418 142.977C136.204 143.549 136.098 144.224 136.098 145ZM150.527 151.242C149.767 151.242 149.082 151.107 148.473 150.836C147.868 150.56 147.389 150.154 147.035 149.617C146.686 149.081 146.512 148.419 146.512 147.633C146.512 146.956 146.637 146.396 146.887 145.953C147.137 145.51 147.478 145.156 147.91 144.891C148.342 144.625 148.829 144.424 149.371 144.289C149.918 144.148 150.483 144.047 151.066 143.984C151.77 143.911 152.34 143.846 152.777 143.789C153.215 143.727 153.533 143.633 153.73 143.508C153.934 143.378 154.035 143.177 154.035 142.906V142.859C154.035 142.271 153.861 141.815 153.512 141.492C153.163 141.169 152.66 141.008 152.004 141.008C151.311 141.008 150.762 141.159 150.355 141.461C149.954 141.763 149.684 142.12 149.543 142.531L146.902 142.156C147.111 141.427 147.454 140.818 147.934 140.328C148.413 139.833 148.999 139.464 149.691 139.219C150.384 138.969 151.15 138.844 151.988 138.844C152.566 138.844 153.142 138.911 153.715 139.047C154.288 139.182 154.811 139.406 155.285 139.719C155.759 140.026 156.139 140.445 156.426 140.977C156.717 141.508 156.863 142.172 156.863 142.969V151H154.145V149.352H154.051C153.879 149.685 153.637 149.997 153.324 150.289C153.017 150.576 152.629 150.807 152.16 150.984C151.697 151.156 151.152 151.242 150.527 151.242ZM151.262 149.164C151.829 149.164 152.322 149.052 152.738 148.828C153.155 148.599 153.475 148.297 153.699 147.922C153.928 147.547 154.043 147.138 154.043 146.695V145.281C153.954 145.354 153.803 145.422 153.59 145.484C153.382 145.547 153.147 145.602 152.887 145.648C152.626 145.695 152.368 145.737 152.113 145.773C151.858 145.81 151.637 145.841 151.449 145.867C151.027 145.924 150.65 146.018 150.316 146.148C149.983 146.279 149.72 146.461 149.527 146.695C149.335 146.924 149.238 147.221 149.238 147.586C149.238 148.107 149.428 148.5 149.809 148.766C150.189 149.031 150.673 149.164 151.262 149.164ZM167.949 143.828V146.148H161.559V143.828H167.949ZM162.434 139V151H159.707V139H162.434ZM169.801 139V151H167.082V139H169.801ZM171.318 141.32V139H181.818V141.32H177.936V151H175.201V141.32H171.318ZM184.07 151V139H186.898V151H184.07ZM185.492 137.297C185.044 137.297 184.659 137.148 184.336 136.852C184.013 136.549 183.852 136.187 183.852 135.766C183.852 135.339 184.013 134.977 184.336 134.68C184.659 134.378 185.044 134.227 185.492 134.227C185.945 134.227 186.331 134.378 186.648 134.68C186.971 134.977 187.133 135.339 187.133 135.766C187.133 136.187 186.971 136.549 186.648 136.852C186.331 137.148 185.945 137.297 185.492 137.297ZM195.416 144.156V146.023H190.533V144.156H195.416ZM199.768 142.781L197.096 143.133C196.95 142.565 196.679 142.096 196.283 141.727C195.887 141.352 195.333 141.164 194.619 141.164C193.984 141.164 193.447 141.323 193.01 141.641C192.577 141.958 192.249 142.406 192.025 142.984C191.801 143.557 191.689 144.229 191.689 145C191.689 145.776 191.799 146.456 192.018 147.039C192.242 147.622 192.57 148.078 193.002 148.406C193.439 148.729 193.979 148.891 194.619 148.891C195.057 148.891 195.439 148.815 195.768 148.664C196.096 148.508 196.367 148.294 196.58 148.023C196.799 147.747 196.958 147.427 197.057 147.062L199.744 147.398C199.593 148.154 199.286 148.82 198.822 149.398C198.364 149.971 197.775 150.422 197.057 150.75C196.343 151.073 195.531 151.234 194.619 151.234C193.452 151.234 192.445 150.969 191.596 150.437C190.752 149.906 190.101 149.172 189.643 148.234C189.189 147.297 188.963 146.219 188.963 145C188.963 143.797 189.192 142.734 189.65 141.812C190.114 140.885 190.768 140.159 191.611 139.633C192.455 139.107 193.458 138.844 194.619 138.844C195.525 138.844 196.338 139.008 197.057 139.336C197.781 139.659 198.377 140.115 198.846 140.703C199.32 141.292 199.627 141.984 199.768 142.781ZM208.604 143.914V146.242H202.143V143.914H208.604ZM204.385 139V151H201.549V139H204.385ZM212.229 151.234C211.072 151.234 210.07 150.971 209.221 150.445C208.377 149.919 207.723 149.19 207.26 148.258C206.796 147.326 206.564 146.247 206.564 145.023C206.564 143.799 206.796 142.724 207.26 141.797C207.723 140.87 208.377 140.146 209.221 139.625C210.07 139.104 211.072 138.844 212.229 138.844C213.38 138.844 214.377 139.104 215.221 139.625C216.07 140.146 216.726 140.87 217.189 141.797C217.658 142.724 217.893 143.799 217.893 145.023C217.893 146.247 217.658 147.326 217.189 148.258C216.726 149.19 216.07 149.919 215.221 150.445C214.377 150.971 213.38 151.234 212.229 151.234ZM212.229 148.891C212.911 148.891 213.468 148.719 213.9 148.375C214.333 148.031 214.65 147.568 214.854 146.984C215.057 146.401 215.158 145.747 215.158 145.023C215.158 144.299 215.057 143.646 214.854 143.062C214.65 142.479 214.333 142.018 213.9 141.68C213.468 141.336 212.911 141.164 212.229 141.164C211.541 141.164 210.979 141.336 210.541 141.68C210.109 142.018 209.791 142.479 209.588 143.062C209.385 143.646 209.283 144.299 209.283 145.023C209.283 145.753 209.385 146.409 209.588 146.992C209.791 147.576 210.109 148.039 210.541 148.383C210.979 148.721 211.541 148.891 212.229 148.891Z" fill="#3F2622"/>
<defs>
<clipPath id="clip0_188_338">
<rect width="108" height="108" fill="white" transform="translate(57)"/>
</clipPath>
</defs>
</svg>
