<svg width="109" height="109" viewBox="0 0 109 109" fill="none" xmlns="http://www.w3.org/2000/svg">
<path d="M62.9698 96.8591C63.1768 96.7426 63.3277 96.5382 63.484 96.362L74.6414 83.5013L88.6298 67.973C89.3755 67.1555 90.094 66.2169 90.9068 65.4754C92.4511 64.0665 94.6929 65.8424 93.4496 67.5146C92.9048 68.2472 92.1812 68.9172 91.5734 69.608L59.6932 105.425C53.912 111.65 50.5074 106.843 46.5262 102.336L38.1619 92.7465L15.7322 67.7627C14.2048 65.9418 16.2684 63.8698 18.1001 65.5226C18.5357 65.9156 18.9288 66.3838 19.3245 66.8176L40.0807 90.0008L45.9905 97.0394C45.4964 95.8438 44.5591 94.7163 43.8267 93.6502L29.0921 73.1786L2.27641 36.776C1.1612 35.1725 0.100032 32.5878 0.518809 30.5688C1.00561 28.2221 3.73871 26.4106 5.41531 24.9367L18.097 13.871C18.9391 13.1678 19.7336 12.3676 20.6608 11.7772C23.1542 10.1896 25.8698 10.5525 28.6808 10.5519L83.0261 10.5514C87.5278 10.5598 88.3596 11.6432 91.5785 14.3972L103.651 24.9276C104.757 25.8807 105.891 26.8217 106.905 27.8751C110.306 31.4092 107.944 35.2279 105.443 38.4974L71.8825 84.1774L63.7701 95.6903C63.5236 96.0382 63.2042 96.405 63.009 96.7814L62.9698 96.8591ZM30.2092 13.7723L26.6969 13.7739C24.3704 13.7778 22.8246 13.8625 20.9779 15.5824C21.3661 16.4299 21.8475 17.2418 22.3045 18.0541L27.9711 27.6947C28.4699 28.4843 28.9648 29.3101 29.5518 30.0367L31.6858 27.6739L34.5977 24.376L42.3348 14.686C42.5817 14.3646 42.7148 13.9793 43.0812 13.7766L30.2092 13.7723ZM66.5147 13.7723C66.3625 13.7603 66.0214 13.7225 65.9163 13.8187C67.0827 15.5015 68.4697 17.0538 69.7564 18.6461L74.3601 24.3617L78.8338 29.403C79.0146 29.618 79.226 29.9463 79.4489 30.1059L82.6077 25.044L88.0794 15.6501C86.8645 14.5689 85.7623 13.8716 84.0752 13.7895L66.5147 13.7723ZM48.5369 13.7865C47.1866 13.8852 47.0874 14.238 46.1781 15.2605L37.407 26.0998L34.7093 29.1447C34.4236 29.4453 34.0838 30.0278 33.7776 30.2179L60.594 30.2345L75.2615 30.2277C74.9077 29.9652 74.636 29.5882 74.3388 29.2612L64.9516 17.8938C64.116 16.8608 62.2009 13.9434 60.8754 13.8198L48.5369 13.7865ZM90.6854 17.9065C89.667 19.3663 88.8124 20.9388 87.9245 22.4796L83.8815 29.3521C83.7088 29.6469 83.5923 29.9377 83.3948 30.2156L97.4241 30.2345L104.666 30.2773L90.6854 17.9065ZM18.2728 17.9486L5.35666 29.2857C4.98717 29.6186 4.58459 29.9533 4.25595 30.3256L4.35075 30.3105C5.40886 30.1506 6.56905 30.2337 7.6413 30.2318L11.7156 30.2345L25.6642 30.1479C25.5286 30.0329 24.9052 28.9027 24.7626 28.6783L20.057 20.7619C19.4893 19.8219 18.9486 18.8146 18.2728 17.9486ZM31.3948 33.4243L34.0154 43.4227L41.866 69.6621L49.6369 94.5364L52.7803 103.151C54.5658 107.197 56.0826 103.605 56.836 101.549L61.2667 88.4967L72.8096 51.1904L77.344 34.8066C77.4483 34.4067 77.5173 33.7834 77.7117 33.4315L31.3948 33.4243ZM4.16454 33.4396C5.06594 35.1487 6.31224 36.6811 7.47054 38.2275L28.5889 66.787L43.1191 86.8019C43.5402 87.3705 43.9359 88.0816 44.4207 88.5844L33.1196 52.3264L29.0568 37.5039C28.7336 36.1852 28.3813 34.8794 28.149 33.5413C27.1459 33.3953 26.0955 33.446 25.0823 33.4426L4.16454 33.4396ZM80.9889 33.4396L77.5452 46.4368L65.1669 87.1538C65.0421 87.5662 64.8733 88.0186 64.8231 88.4461L74.9262 74.4572L103.492 35.6179C103.99 34.9294 104.551 34.2179 104.902 33.4413L80.9889 33.4396Z" fill="#3F2622"/>
</svg>
