<svg width="323" height="156" viewBox="0 0 323 156" fill="none" xmlns="http://www.w3.org/2000/svg">
<path d="M169.97 96.8591C170.177 96.7426 170.328 96.5382 170.484 96.362L181.641 83.5013L195.63 67.973C196.376 67.1555 197.094 66.2169 197.907 65.4754C199.451 64.0665 201.693 65.8424 200.45 67.5146C199.905 68.2472 199.181 68.9172 198.573 69.608L166.693 105.425C160.912 111.65 157.507 106.843 153.526 102.336L145.162 92.7465L122.732 67.7627C121.205 65.9418 123.268 63.8698 125.1 65.5226C125.536 65.9156 125.929 66.3838 126.325 66.8176L147.081 90.0008L152.991 97.0394C152.496 95.8438 151.559 94.7163 150.827 93.6502L136.092 73.1786L109.276 36.776C108.161 35.1725 107.1 32.5878 107.519 30.5688C108.006 28.2221 110.739 26.4106 112.415 24.9367L125.097 13.871C125.939 13.1678 126.734 12.3676 127.661 11.7772C130.154 10.1896 132.87 10.5525 135.681 10.5519L190.026 10.5514C194.528 10.5598 195.36 11.6432 198.579 14.3972L210.651 24.9276C211.757 25.8807 212.891 26.8217 213.905 27.8751C217.306 31.4092 214.944 35.2279 212.443 38.4974L178.883 84.1774L170.77 95.6903C170.524 96.0382 170.204 96.405 170.009 96.7814L169.97 96.8591ZM137.209 13.7723L133.697 13.7739C131.37 13.7778 129.825 13.8625 127.978 15.5824C128.366 16.4299 128.847 17.2418 129.305 18.0541L134.971 27.6947C135.47 28.4843 135.965 29.3101 136.552 30.0367L138.686 27.6739L141.598 24.376L149.335 14.686C149.582 14.3646 149.715 13.9793 150.081 13.7766L137.209 13.7723ZM173.515 13.7723C173.362 13.7603 173.021 13.7225 172.916 13.8187C174.083 15.5015 175.47 17.0538 176.756 18.6461L181.36 24.3617L185.834 29.403C186.015 29.618 186.226 29.9463 186.449 30.1059L189.608 25.044L195.079 15.6501C193.864 14.5689 192.762 13.8716 191.075 13.7895L173.515 13.7723ZM155.537 13.7865C154.187 13.8852 154.087 14.238 153.178 15.2605L144.407 26.0998L141.709 29.1447C141.424 29.4453 141.084 30.0278 140.778 30.2179L167.594 30.2345L182.262 30.2277C181.908 29.9652 181.636 29.5882 181.339 29.2612L171.952 17.8938C171.116 16.8608 169.201 13.9434 167.875 13.8198L155.537 13.7865ZM197.685 17.9065C196.667 19.3663 195.812 20.9388 194.924 22.4796L190.881 29.3521C190.709 29.6469 190.592 29.9377 190.395 30.2156L204.424 30.2345L211.666 30.2773L197.685 17.9065ZM125.273 17.9486L112.357 29.2857C111.987 29.6186 111.585 29.9533 111.256 30.3256L111.351 30.3105C112.409 30.1506 113.569 30.2337 114.641 30.2318L118.716 30.2345L132.664 30.1479C132.529 30.0329 131.905 28.9027 131.763 28.6783L127.057 20.7619C126.489 19.8219 125.949 18.8146 125.273 17.9486ZM138.395 33.4243L141.015 43.4227L148.866 69.6621L156.637 94.5364L159.78 103.151C161.566 107.197 163.083 103.605 163.836 101.549L168.267 88.4967L179.81 51.1904L184.344 34.8066C184.448 34.4067 184.517 33.7834 184.712 33.4315L138.395 33.4243ZM111.165 33.4396C112.066 35.1487 113.312 36.6811 114.471 38.2275L135.589 66.787L150.119 86.8019C150.54 87.3705 150.936 88.0816 151.421 88.5844L140.12 52.3264L136.057 37.5039C135.734 36.1852 135.381 34.8794 135.149 33.5413C134.146 33.3953 133.095 33.446 132.082 33.4426L111.165 33.4396ZM187.989 33.4396L184.545 46.4368L172.167 87.1538C172.042 87.5662 171.873 88.0186 171.823 88.4461L181.926 74.4572L210.492 35.6179C210.99 34.9294 211.551 34.2179 211.902 33.4413L187.989 33.4396Z" fill="#3F2622"/>
<path d="M1.57812 151V135H7.70313C8.85938 135 9.82031 135.182 10.5859 135.547C11.3568 135.906 11.9323 136.398 12.3125 137.023C12.6979 137.648 12.8906 138.357 12.8906 139.148C12.8906 139.799 12.7656 140.357 12.5156 140.82C12.2656 141.279 11.9297 141.651 11.5078 141.937C11.0859 142.224 10.6146 142.43 10.0938 142.555V142.711C10.6615 142.742 11.2057 142.917 11.7266 143.234C12.2526 143.547 12.6823 143.99 13.0156 144.562C13.349 145.135 13.5156 145.828 13.5156 146.641C13.5156 147.469 13.3151 148.214 12.9141 148.875C12.513 149.531 11.9089 150.049 11.1016 150.43C10.2943 150.81 9.27865 151 8.05469 151H1.57812ZM4.47656 148.578H7.59375C8.64583 148.578 9.40365 148.378 9.86719 147.977C10.3359 147.57 10.5703 147.049 10.5703 146.414C10.5703 145.94 10.4531 145.513 10.2188 145.133C9.98438 144.747 9.65104 144.445 9.21875 144.227C8.78646 144.003 8.27083 143.891 7.67188 143.891H4.47656V148.578ZM4.47656 141.805H7.34375C7.84375 141.805 8.29427 141.714 8.69531 141.531C9.09635 141.344 9.41146 141.081 9.64063 140.742C9.875 140.398 9.99219 139.992 9.99219 139.523C9.99219 138.904 9.77344 138.393 9.33594 137.992C8.90365 137.591 8.26042 137.391 7.40625 137.391H4.47656V141.805ZM18.6387 147.172L23.4434 139H26.3496V151H23.6152V142.82L18.8262 151H15.9121V139H18.6387V147.172ZM37.1914 139V141.32H32.0195V151H29.2539V139H37.1914ZM44.1992 151.234C43.0273 151.234 42.0117 150.977 41.1523 150.461C40.293 149.945 39.6263 149.224 39.1523 148.297C38.6836 147.37 38.4492 146.286 38.4492 145.047C38.4492 143.807 38.6836 142.721 39.1523 141.789C39.6263 140.857 40.293 140.133 41.1523 139.617C42.0117 139.102 43.0273 138.844 44.1992 138.844C45.3711 138.844 46.3867 139.102 47.2461 139.617C48.1055 140.133 48.7695 140.857 49.2383 141.789C49.7122 142.721 49.9492 143.807 49.9492 145.047C49.9492 146.286 49.7122 147.37 49.2383 148.297C48.7695 149.224 48.1055 149.945 47.2461 150.461C46.3867 150.977 45.3711 151.234 44.1992 151.234ZM44.2148 148.969C44.8503 148.969 45.3815 148.794 45.8086 148.445C46.2357 148.091 46.5534 147.617 46.7617 147.023C46.9753 146.43 47.082 145.768 47.082 145.039C47.082 144.305 46.9753 143.641 46.7617 143.047C46.5534 142.448 46.2357 141.971 45.8086 141.617C45.3815 141.263 44.8503 141.086 44.2148 141.086C43.5638 141.086 43.0221 141.263 42.5898 141.617C42.1628 141.971 41.8424 142.448 41.6289 143.047C41.4206 143.641 41.3164 144.305 41.3164 145.039C41.3164 145.768 41.4206 146.43 41.6289 147.023C41.8424 147.617 42.1628 148.091 42.5898 148.445C43.0221 148.794 43.5638 148.969 44.2148 148.969ZM51.0273 141.32V139H61.5273V141.32H57.6445V151H54.9102V141.32H51.0273ZM68.5195 151.234C67.3477 151.234 66.332 150.977 65.4727 150.461C64.6133 149.945 63.9466 149.224 63.4727 148.297C63.0039 147.37 62.7695 146.286 62.7695 145.047C62.7695 143.807 63.0039 142.721 63.4727 141.789C63.9466 140.857 64.6133 140.133 65.4727 139.617C66.332 139.102 67.3477 138.844 68.5195 138.844C69.6914 138.844 70.707 139.102 71.5664 139.617C72.4258 140.133 73.0898 140.857 73.5586 141.789C74.0326 142.721 74.2695 143.807 74.2695 145.047C74.2695 146.286 74.0326 147.37 73.5586 148.297C73.0898 149.224 72.4258 149.945 71.5664 150.461C70.707 150.977 69.6914 151.234 68.5195 151.234ZM68.5352 148.969C69.1706 148.969 69.7018 148.794 70.1289 148.445C70.556 148.091 70.8737 147.617 71.082 147.023C71.2956 146.43 71.4023 145.768 71.4023 145.039C71.4023 144.305 71.2956 143.641 71.082 143.047C70.8737 142.448 70.556 141.971 70.1289 141.617C69.7018 141.263 69.1706 141.086 68.5352 141.086C67.8841 141.086 67.3424 141.263 66.9102 141.617C66.4831 141.971 66.1628 142.448 65.9492 143.047C65.7409 143.641 65.6367 144.305 65.6367 145.039C65.6367 145.768 65.7409 146.43 65.9492 147.023C66.1628 147.617 66.4831 148.091 66.9102 148.445C67.3424 148.794 67.8841 148.969 68.5352 148.969ZM76.6699 151V139H81.709C83.1309 139 84.2533 139.284 85.0762 139.852C85.9043 140.419 86.3184 141.211 86.3184 142.227C86.3184 142.898 86.084 143.448 85.6152 143.875C85.1517 144.297 84.5189 144.581 83.7168 144.727C84.347 144.779 84.8991 144.937 85.373 145.203C85.8522 145.469 86.2272 145.818 86.498 146.25C86.7689 146.682 86.9043 147.18 86.9043 147.742C86.9043 148.404 86.7298 148.979 86.3809 149.469C86.0371 149.953 85.5345 150.331 84.873 150.602C84.2168 150.867 83.4199 151 82.4824 151H76.6699ZM79.3184 148.773H82.4824C83.0033 148.773 83.4121 148.651 83.709 148.406C84.0059 148.156 84.1543 147.818 84.1543 147.391C84.1543 146.896 84.0059 146.508 83.709 146.227C83.4121 145.94 83.0033 145.797 82.4824 145.797H79.3184V148.773ZM79.3184 143.969H81.7637C82.1491 143.969 82.4798 143.914 82.7559 143.805C83.0319 143.69 83.2428 143.531 83.3887 143.328C83.5345 143.12 83.6074 142.872 83.6074 142.586C83.6074 142.174 83.4382 141.852 83.0996 141.617C82.7663 141.383 82.3027 141.266 81.709 141.266H79.3184V143.969ZM88.4102 151L88.3945 148.672H88.8086C89.1211 148.672 89.3841 148.602 89.5977 148.461C89.8112 148.32 89.9883 148.086 90.1289 147.758C90.2695 147.424 90.3789 146.977 90.457 146.414C90.5352 145.852 90.5898 145.151 90.6211 144.312L90.832 139H99.582V151H96.8477V141.32H93.4023L93.2148 145.187C93.168 146.187 93.056 147.055 92.8789 147.789C92.707 148.518 92.4622 149.12 92.1445 149.594C91.832 150.068 91.4388 150.422 90.9648 150.656C90.4909 150.885 89.931 151 89.2852 151H88.4102ZM107.742 151.234C106.539 151.234 105.5 150.984 104.625 150.484C103.755 149.979 103.086 149.266 102.617 148.344C102.148 147.417 101.914 146.326 101.914 145.07C101.914 143.836 102.148 142.753 102.617 141.82C103.091 140.883 103.753 140.154 104.602 139.633C105.451 139.107 106.448 138.844 107.594 138.844C108.333 138.844 109.031 138.964 109.688 139.203C110.349 139.437 110.932 139.802 111.438 140.297C111.948 140.792 112.349 141.422 112.641 142.187C112.932 142.948 113.078 143.854 113.078 144.906V145.773H103.242V143.867H110.367C110.362 143.326 110.245 142.844 110.016 142.422C109.786 141.995 109.466 141.659 109.055 141.414C108.648 141.169 108.174 141.047 107.633 141.047C107.055 141.047 106.547 141.187 106.109 141.469C105.672 141.745 105.331 142.109 105.086 142.562C104.846 143.01 104.724 143.503 104.719 144.039V145.703C104.719 146.401 104.846 147 105.102 147.5C105.357 147.995 105.714 148.375 106.172 148.641C106.63 148.901 107.167 149.031 107.781 149.031C108.193 149.031 108.565 148.974 108.898 148.859C109.232 148.74 109.521 148.565 109.766 148.336C110.01 148.107 110.195 147.823 110.32 147.484L112.961 147.781C112.794 148.479 112.477 149.089 112.008 149.609C111.544 150.125 110.951 150.526 110.227 150.812C109.503 151.094 108.674 151.234 107.742 151.234ZM123.713 143.828V146.148H117.322V143.828H123.713ZM118.197 139V151H115.471V139H118.197ZM125.564 139V151H122.846V139H125.564ZM136.668 143.828V146.148H130.277V143.828H136.668ZM131.152 139V151H128.426V139H131.152ZM138.52 139V151H135.801V139H138.52ZM148.475 151V141.297H145.912C145.261 141.297 144.761 141.448 144.412 141.75C144.063 142.052 143.891 142.427 143.896 142.875C143.891 143.323 144.055 143.693 144.389 143.984C144.722 144.276 145.199 144.422 145.818 144.422H149.365V146.484H145.818C144.86 146.484 144.032 146.333 143.334 146.031C142.636 145.729 142.1 145.302 141.725 144.75C141.35 144.198 141.162 143.552 141.162 142.812C141.162 142.042 141.352 141.372 141.732 140.805C142.118 140.232 142.665 139.789 143.373 139.477C144.087 139.159 144.933 139 145.912 139H151.123V151H148.475ZM140.725 151L144.076 144.844H146.865L143.506 151H140.725ZM167.67 143.828V146.148H161.279V143.828H167.67ZM162.154 139V151H159.428V139H162.154ZM169.521 139V151H166.803V139H169.521ZM175.836 151.242C175.076 151.242 174.391 151.107 173.781 150.836C173.177 150.56 172.698 150.154 172.344 149.617C171.995 149.081 171.82 148.419 171.82 147.633C171.82 146.956 171.945 146.396 172.195 145.953C172.445 145.51 172.786 145.156 173.219 144.891C173.651 144.625 174.138 144.424 174.68 144.289C175.227 144.148 175.792 144.047 176.375 143.984C177.078 143.911 177.648 143.846 178.086 143.789C178.523 143.727 178.841 143.633 179.039 143.508C179.242 143.378 179.344 143.177 179.344 142.906V142.859C179.344 142.271 179.169 141.815 178.82 141.492C178.471 141.169 177.969 141.008 177.313 141.008C176.62 141.008 176.07 141.159 175.664 141.461C175.263 141.763 174.992 142.12 174.852 142.531L172.211 142.156C172.419 141.427 172.763 140.818 173.242 140.328C173.721 139.833 174.307 139.464 175 139.219C175.693 138.969 176.458 138.844 177.297 138.844C177.875 138.844 178.451 138.911 179.023 139.047C179.596 139.182 180.12 139.406 180.594 139.719C181.068 140.026 181.448 140.445 181.734 140.977C182.026 141.508 182.172 142.172 182.172 142.969V151H179.453V149.352H179.359C179.188 149.685 178.945 149.997 178.633 150.289C178.326 150.576 177.938 150.807 177.469 150.984C177.005 151.156 176.461 151.242 175.836 151.242ZM176.57 149.164C177.138 149.164 177.63 149.052 178.047 148.828C178.464 148.599 178.784 148.297 179.008 147.922C179.237 147.547 179.352 147.138 179.352 146.695V145.281C179.263 145.354 179.112 145.422 178.898 145.484C178.69 145.547 178.456 145.602 178.195 145.648C177.935 145.695 177.677 145.737 177.422 145.773C177.167 145.81 176.945 145.841 176.758 145.867C176.336 145.924 175.958 146.018 175.625 146.148C175.292 146.279 175.029 146.461 174.836 146.695C174.643 146.924 174.547 147.221 174.547 147.586C174.547 148.107 174.737 148.5 175.117 148.766C175.497 149.031 175.982 149.164 176.57 149.164ZM189.809 147.711H192.613C192.639 148.159 192.84 148.505 193.215 148.75C193.59 148.995 194.077 149.117 194.676 149.117C195.285 149.117 195.798 148.984 196.215 148.719C196.637 148.448 196.848 148.039 196.848 147.492C196.848 147.169 196.767 146.885 196.605 146.641C196.444 146.391 196.217 146.198 195.926 146.062C195.634 145.927 195.29 145.859 194.895 145.859H193.059V143.852H194.895C195.483 143.852 195.928 143.716 196.23 143.445C196.538 143.174 196.691 142.833 196.691 142.422C196.691 141.979 196.53 141.62 196.207 141.344C195.889 141.068 195.449 140.93 194.887 140.93C194.324 140.93 193.855 141.057 193.48 141.312C193.111 141.568 192.918 141.896 192.902 142.297H190.113C190.124 141.599 190.332 140.992 190.738 140.477C191.15 139.961 191.702 139.56 192.395 139.273C193.092 138.987 193.879 138.844 194.754 138.844C195.691 138.844 196.501 138.984 197.184 139.266C197.866 139.547 198.392 139.94 198.762 140.445C199.132 140.945 199.316 141.534 199.316 142.211C199.316 142.862 199.113 143.401 198.707 143.828C198.301 144.25 197.754 144.552 197.066 144.734V144.859C197.54 144.885 197.967 145.021 198.348 145.266C198.728 145.505 199.03 145.831 199.254 146.242C199.478 146.654 199.59 147.13 199.59 147.672C199.59 148.406 199.379 149.042 198.957 149.578C198.535 150.109 197.954 150.518 197.215 150.805C196.48 151.091 195.639 151.234 194.691 151.234C193.77 151.234 192.944 151.096 192.215 150.82C191.491 150.539 190.915 150.135 190.488 149.609C190.061 149.083 189.835 148.451 189.809 147.711ZM205.27 151.242C204.509 151.242 203.824 151.107 203.215 150.836C202.611 150.56 202.132 150.154 201.777 149.617C201.428 149.081 201.254 148.419 201.254 147.633C201.254 146.956 201.379 146.396 201.629 145.953C201.879 145.51 202.22 145.156 202.652 144.891C203.085 144.625 203.572 144.424 204.113 144.289C204.66 144.148 205.225 144.047 205.809 143.984C206.512 143.911 207.082 143.846 207.52 143.789C207.957 143.727 208.275 143.633 208.473 143.508C208.676 143.378 208.777 143.177 208.777 142.906V142.859C208.777 142.271 208.603 141.815 208.254 141.492C207.905 141.169 207.402 141.008 206.746 141.008C206.053 141.008 205.504 141.159 205.098 141.461C204.697 141.763 204.426 142.12 204.285 142.531L201.645 142.156C201.853 141.427 202.197 140.818 202.676 140.328C203.155 139.833 203.741 139.464 204.434 139.219C205.126 138.969 205.892 138.844 206.73 138.844C207.309 138.844 207.884 138.911 208.457 139.047C209.03 139.182 209.553 139.406 210.027 139.719C210.501 140.026 210.882 140.445 211.168 140.977C211.46 141.508 211.605 142.172 211.605 142.969V151H208.887V149.352H208.793C208.621 149.685 208.379 149.997 208.066 150.289C207.759 150.576 207.371 150.807 206.902 150.984C206.439 151.156 205.895 151.242 205.27 151.242ZM206.004 149.164C206.572 149.164 207.064 149.052 207.48 148.828C207.897 148.599 208.217 148.297 208.441 147.922C208.671 147.547 208.785 147.138 208.785 146.695V145.281C208.697 145.354 208.546 145.422 208.332 145.484C208.124 145.547 207.889 145.602 207.629 145.648C207.368 145.695 207.111 145.737 206.855 145.773C206.6 145.81 206.379 145.841 206.191 145.867C205.77 145.924 205.392 146.018 205.059 146.148C204.725 146.279 204.462 146.461 204.27 146.695C204.077 146.924 203.98 147.221 203.98 147.586C203.98 148.107 204.171 148.5 204.551 148.766C204.931 149.031 205.415 149.164 206.004 149.164ZM221.355 147.711L224.918 139H227.199L222.348 151H220.371L215.629 139H217.887L221.355 147.711ZM217.176 139V151H214.449V139H217.176ZM225.652 151V139H228.355V151H225.652ZM236.441 151.234C235.27 151.234 234.254 150.977 233.395 150.461C232.535 149.945 231.868 149.224 231.395 148.297C230.926 147.37 230.691 146.286 230.691 145.047C230.691 143.807 230.926 142.721 231.395 141.789C231.868 140.857 232.535 140.133 233.395 139.617C234.254 139.102 235.27 138.844 236.441 138.844C237.613 138.844 238.629 139.102 239.488 139.617C240.348 140.133 241.012 140.857 241.48 141.789C241.954 142.721 242.191 143.807 242.191 145.047C242.191 146.286 241.954 147.37 241.48 148.297C241.012 149.224 240.348 149.945 239.488 150.461C238.629 150.977 237.613 151.234 236.441 151.234ZM236.457 148.969C237.092 148.969 237.624 148.794 238.051 148.445C238.478 148.091 238.796 147.617 239.004 147.023C239.217 146.43 239.324 145.768 239.324 145.039C239.324 144.305 239.217 143.641 239.004 143.047C238.796 142.448 238.478 141.971 238.051 141.617C237.624 141.263 237.092 141.086 236.457 141.086C235.806 141.086 235.264 141.263 234.832 141.617C234.405 141.971 234.085 142.448 233.871 143.047C233.663 143.641 233.559 144.305 233.559 145.039C233.559 145.768 233.663 146.43 233.871 147.023C234.085 147.617 234.405 148.091 234.832 148.445C235.264 148.794 235.806 148.969 236.457 148.969ZM244.592 151V139H249.631C251.053 139 252.175 139.284 252.998 139.852C253.826 140.419 254.24 141.211 254.24 142.227C254.24 142.898 254.006 143.448 253.537 143.875C253.074 144.297 252.441 144.581 251.639 144.727C252.269 144.779 252.821 144.937 253.295 145.203C253.774 145.469 254.149 145.818 254.42 146.25C254.691 146.682 254.826 147.18 254.826 147.742C254.826 148.404 254.652 148.979 254.303 149.469C253.959 149.953 253.456 150.331 252.795 150.602C252.139 150.867 251.342 151 250.404 151H244.592ZM247.24 148.773H250.404C250.925 148.773 251.334 148.651 251.631 148.406C251.928 148.156 252.076 147.818 252.076 147.391C252.076 146.896 251.928 146.508 251.631 146.227C251.334 145.94 250.925 145.797 250.404 145.797H247.24V148.773ZM247.24 143.969H249.686C250.071 143.969 250.402 143.914 250.678 143.805C250.954 143.69 251.165 143.531 251.311 143.328C251.456 143.12 251.529 142.872 251.529 142.586C251.529 142.174 251.36 141.852 251.021 141.617C250.688 141.383 250.225 141.266 249.631 141.266H247.24V143.969ZM256.332 151L256.316 148.672H256.73C257.043 148.672 257.306 148.602 257.52 148.461C257.733 148.32 257.91 148.086 258.051 147.758C258.191 147.424 258.301 146.977 258.379 146.414C258.457 145.852 258.512 145.151 258.543 144.312L258.754 139H267.504V151H264.77V141.32H261.324L261.137 145.187C261.09 146.187 260.978 147.055 260.801 147.789C260.629 148.518 260.384 149.12 260.066 149.594C259.754 150.068 259.361 150.422 258.887 150.656C258.413 150.885 257.853 151 257.207 151H256.332ZM275.664 151.234C274.461 151.234 273.422 150.984 272.547 150.484C271.677 149.979 271.008 149.266 270.539 148.344C270.07 147.417 269.836 146.326 269.836 145.07C269.836 143.836 270.07 142.753 270.539 141.82C271.013 140.883 271.674 140.154 272.523 139.633C273.372 139.107 274.37 138.844 275.516 138.844C276.255 138.844 276.953 138.964 277.609 139.203C278.271 139.437 278.854 139.802 279.359 140.297C279.87 140.792 280.271 141.422 280.563 142.187C280.854 142.948 281 143.854 281 144.906V145.773H271.164V143.867H278.289C278.284 143.326 278.167 142.844 277.938 142.422C277.708 141.995 277.388 141.659 276.977 141.414C276.57 141.169 276.096 141.047 275.555 141.047C274.977 141.047 274.469 141.187 274.031 141.469C273.594 141.745 273.253 142.109 273.008 142.562C272.768 143.01 272.646 143.503 272.641 144.039V145.703C272.641 146.401 272.768 147 273.023 147.5C273.279 147.995 273.635 148.375 274.094 148.641C274.552 148.901 275.089 149.031 275.703 149.031C276.115 149.031 276.487 148.974 276.82 148.859C277.154 148.74 277.443 148.565 277.688 148.336C277.932 148.107 278.117 147.823 278.242 147.484L280.883 147.781C280.716 148.479 280.398 149.089 279.93 149.609C279.466 150.125 278.872 150.526 278.148 150.812C277.424 151.094 276.596 151.234 275.664 151.234ZM291.635 143.828V146.148H285.244V143.828H291.635ZM286.119 139V151H283.393V139H286.119ZM293.486 139V151H290.768V139H293.486ZM304.59 143.828V146.148H298.199V143.828H304.59ZM299.074 139V151H296.348V139H299.074ZM306.441 139V151H303.723V139H306.441ZM316.396 151V141.297H313.834C313.183 141.297 312.683 141.448 312.334 141.75C311.985 142.052 311.813 142.427 311.818 142.875C311.813 143.323 311.977 143.693 312.311 143.984C312.644 144.276 313.12 144.422 313.74 144.422H317.287V146.484H313.74C312.782 146.484 311.954 146.333 311.256 146.031C310.558 145.729 310.021 145.302 309.646 144.75C309.271 144.198 309.084 143.552 309.084 142.812C309.084 142.042 309.274 141.372 309.654 140.805C310.04 140.232 310.587 139.789 311.295 139.477C312.008 139.159 312.855 139 313.834 139H319.045V151H316.396ZM308.646 151L311.998 144.844H314.787L311.428 151H308.646Z" fill="#3F2622"/>
</svg>
