<svg width="21" height="20" viewBox="0 0 21 20" fill="none" xmlns="http://www.w3.org/2000/svg">
<g clip-path="url(#clip0_153_91)">
<path d="M20.5045 7.35389L13.7025 6.75307L11.0006 0.777726C10.8114 0.359329 10.1885 0.359329 9.99936 0.777726L7.29746 6.75311L0.495479 7.35389C0.0192069 7.39596 -0.173279 7.96013 0.186058 8.26076L5.31817 12.5546L3.81626 18.9013C3.7111 19.3457 4.21502 19.6943 4.62628 19.4618L10.5 16.1401L16.3737 19.4618C16.785 19.6943 17.2889 19.3457 17.1838 18.9013L15.6818 12.5546L20.8139 8.26076C21.1733 7.96013 20.9808 7.39596 20.5045 7.35389Z" fill="#DED7CB"/>
<path d="M11.0006 0.777726C10.8114 0.359329 10.1885 0.359329 9.99936 0.777726L7.29746 6.75311L0.495479 7.35389C0.0192068 7.39596 -0.173279 7.96013 0.186058 8.26076L5.31817 12.5546L3.81626 18.9013C3.7111 19.3457 4.21502 19.6943 4.62628 19.4618L5.93726 18.7204C6.11871 11.6071 9.58904 6.59783 12.3366 3.73225L11.0006 0.777726Z" fill="#B0A99D"/>
</g>
<defs>
<clipPath id="clip0_153_91">
<rect width="21" height="20" fill="white"/>
</clipPath>
</defs>
</svg>
