<svg width="21" height="20" viewBox="0 0 21 20" fill="none" xmlns="http://www.w3.org/2000/svg">
<g clip-path="url(#clip0_4_197)">
<path d="M20.5045 7.35382L13.7025 6.75301L11.0006 0.777665C10.8114 0.359268 10.1885 0.359268 9.99936 0.777665L7.29746 6.75304L0.495479 7.35382C0.0192069 7.39589 -0.173279 7.96007 0.186058 8.2607L5.31817 12.5545L3.81626 18.9012C3.7111 19.3456 4.21502 19.6943 4.62628 19.4617L10.5 16.1401L16.3737 19.4617C16.785 19.6943 17.2889 19.3456 17.1838 18.9012L15.6818 12.5545L20.8139 8.2607C21.1733 7.96007 20.9808 7.39589 20.5045 7.35382Z" fill="#F7BA20"/>
<path d="M11.0006 0.777665C10.8114 0.359268 10.1885 0.359268 9.99936 0.777665L7.29746 6.75304L0.495479 7.35382C0.0192068 7.39589 -0.173279 7.96007 0.186058 8.2607L5.31817 12.5545L3.81626 18.9012C3.7111 19.3456 4.21502 19.6943 4.62628 19.4617L5.93726 18.7203C6.11871 11.607 9.58904 6.59777 12.3366 3.73219L11.0006 0.777665Z" fill="#F2AB1D"/>
</g>
<defs>
<clipPath id="clip0_4_197">
<rect width="21" height="20" fill="white"/>
</clipPath>
</defs>
</svg>
